<?xml version="1.0"?>
<svg width="256" height="256" xmlns="http://www.w3.org/2000/svg" xmlns:svg="http://www.w3.org/2000/svg">
 <g class="layer">
  <title>Layer 1</title>
  <path d="m257,236c0,11.05 -8.95,20 -20,20l-216,0c-11.05,0 -20,-8.95 -20,-20l0,-216c0,-11.05 8.95,-20 20,-20l216,0c11.05,0 20,8.95 20,20l0,216z" fill="#FFE812" id="svg_1" transform="matrix(1 0 0 1 0 0)"/>
  <path d="m130.5,55c-42.8,0 -77.5,28.49 -77.5,63.63c0,22.72 14.51,42.66 36.33,53.91c-1.19,4.26 -7.63,27.42 -7.88,29.25c0,0 -0.16,1.37 0.69,1.89s1.85,0.12 1.85,0.12c2.44,-0.36 28.28,-19.25 32.75,-22.53c4.46,0.66 9.07,1 13.76,1c42.8,0 77.5,-28.49 77.5,-63.63c0,-35.14 -34.7,-63.63 -77.5,-63.63z" id="svg_2"/>
 </g>
</svg>