<svg width="323" height="190" viewBox="0 0 323 190" fill="none" xmlns="http://www.w3.org/2000/svg">
<path d="M193.96 126C193.96 131.32 192.187 135.753 188.64 139.3C185.093 142.847 180.987 145.273 176.32 146.58C171.747 147.793 167.313 148.4 163.02 148.4C158.727 148.4 154.947 148.12 151.68 147.56C148.507 147 145.8 146.347 143.56 145.6C139.453 144.013 136.187 142.52 133.76 141.12L132.5 140.28L138.66 127.54C144.26 130.713 148.973 132.3 152.8 132.3C156.627 132.3 158.54 130.713 158.54 127.54C158.54 125.953 157.327 124.32 154.9 122.64C152.473 120.96 149.813 119.373 146.92 117.88C144.12 116.387 141.507 114.1 139.08 111.02C136.653 107.94 135.44 104.393 135.44 100.38C135.44 93.1933 138.147 87.78 143.56 84.14C148.973 80.5 156.113 78.68 164.98 78.68C169.46 78.68 173.847 79.0533 178.14 79.8C182.433 80.5467 185.653 81.2933 187.8 82.04L190.88 83.3L187.38 97.44C182.06 95.48 177.533 94.5 173.8 94.5C170.067 94.5 168.2 95.9467 168.2 98.84C168.2 100.24 169.087 101.593 170.86 102.9C172.633 104.113 174.78 105.327 177.3 106.54C179.82 107.753 182.34 109.153 184.86 110.74C187.38 112.233 189.527 114.333 191.3 117.04C193.073 119.653 193.96 122.64 193.96 126ZM235.016 82.6L237.396 81.76L232.636 147H206.176L201.696 81.76C207.016 83.9067 212.663 84.98 218.636 84.98C224.703 84.98 230.163 84.1867 235.016 82.6ZM219.476 78.82C214.809 78.82 210.889 77.42 207.716 74.62C204.543 71.82 202.956 68.18 202.956 63.7C202.956 59.1267 204.496 55.4867 207.576 52.78C210.749 49.98 214.669 48.58 219.336 48.58C224.096 48.58 228.063 49.98 231.236 52.78C234.409 55.58 235.996 59.22 235.996 63.7C235.996 68.18 234.409 71.82 231.236 74.62C228.063 77.42 224.143 78.82 219.476 78.82ZM299.896 147C288.79 136.267 280.95 128.66 276.376 124.18L275.396 147H249.636L245.856 56.14H279.176L277.496 99.26L291.636 80.64H319.916L300.176 108.36L322.716 147H299.896Z" fill="#36BC9B"/>
<path d="M64.44 92.46C69.96 92.46 74.34 90.78 77.58 87.42C80.82 84.06 82.44 79.98 82.44 75.18C82.44 70.26 80.88 66.6 77.76 64.2C74.76 61.68 70.86 60.42 66.06 60.42H58.86L55.8 92.46H64.44ZM75.78 115.5H53.46L50.4 147H15.3L4.5 37.92H84.78C97.38 37.92 107.58 41.16 115.38 47.64C123.3 54 127.26 63.18 127.26 75.18C127.26 82.5 125.76 88.86 122.76 94.26C119.88 99.66 115.92 103.86 110.88 106.86C101.16 112.62 89.46 115.5 75.78 115.5Z" fill="#36BC9B"/>
<path d="M236 64C236 72.2843 228.613 79 219.5 79C210.387 79 203 72.2843 203 64C203 55.7157 210.387 49 219.5 49C228.613 49 236 55.7157 236 64Z" fill="#FF383C"/>
</svg>
