<svg width="400" height="400" viewBox="0 0 400 400" fill="none" xmlns="http://www.w3.org/2000/svg">
<path d="M400 0H0V400H400V0Z" fill="#36BC9B"/>
<path d="M235.96 220C235.96 225.32 234.187 229.753 230.64 233.3C227.093 236.847 222.987 239.273 218.32 240.58C213.747 241.793 209.313 242.4 205.02 242.4C200.727 242.4 196.947 242.12 193.68 241.56C190.507 241 187.8 240.347 185.56 239.6C181.453 238.013 178.187 236.52 175.76 235.12L174.5 234.28L180.66 221.54C186.26 224.713 190.973 226.3 194.8 226.3C198.627 226.3 200.54 224.713 200.54 221.54C200.54 219.953 199.327 218.32 196.9 216.64C194.473 214.96 191.813 213.373 188.92 211.88C186.12 210.387 183.507 208.1 181.08 205.02C178.653 201.94 177.44 198.393 177.44 194.38C177.44 187.193 180.147 181.78 185.56 178.14C190.973 174.5 198.113 172.68 206.98 172.68C211.46 172.68 215.847 173.053 220.14 173.8C224.433 174.547 227.653 175.293 229.8 176.04L232.88 177.3L229.38 191.44C224.06 189.48 219.533 188.5 215.8 188.5C212.067 188.5 210.2 189.947 210.2 192.84C210.2 194.24 211.087 195.593 212.86 196.9C214.633 198.113 216.78 199.327 219.3 200.54C221.82 201.753 224.34 203.153 226.86 204.74C229.38 206.233 231.527 208.333 233.3 211.04C235.073 213.653 235.96 216.64 235.96 220ZM277.016 176.6L279.396 175.76L274.636 241H248.176L243.696 175.76C249.016 177.907 254.663 178.98 260.636 178.98C266.703 178.98 272.163 178.187 277.016 176.6ZM261.476 172.82C256.809 172.82 252.889 171.42 249.716 168.62C246.543 165.82 244.956 162.18 244.956 157.7C244.956 153.127 246.496 149.487 249.576 146.78C252.749 143.98 256.669 142.58 261.336 142.58C266.096 142.58 270.063 143.98 273.236 146.78C276.409 149.58 277.996 153.22 277.996 157.7C277.996 162.18 276.409 165.82 273.236 168.62C270.063 171.42 266.143 172.82 261.476 172.82ZM341.896 241C330.79 230.267 322.95 222.66 318.376 218.18L317.396 241H291.636L287.856 150.14H321.176L319.496 193.26L333.636 174.64H361.916L342.176 202.36L364.716 241H341.896Z" fill="white"/>
<path d="M106.44 186.46C111.96 186.46 116.34 184.78 119.58 181.42C122.82 178.06 124.44 173.98 124.44 169.18C124.44 164.26 122.88 160.6 119.76 158.2C116.76 155.68 112.86 154.42 108.06 154.42H100.86L97.8 186.46H106.44ZM117.78 209.5H95.46L92.4 241H57.3L46.5 131.92H126.78C139.38 131.92 149.58 135.16 157.38 141.64C165.3 148 169.26 157.18 169.26 169.18C169.26 176.5 167.76 182.86 164.76 188.26C161.88 193.66 157.92 197.86 152.88 200.86C143.16 206.62 131.46 209.5 117.78 209.5Z" fill="white"/>
<rect x="233" y="128" width="50" height="45" fill="#36BC9B"/>
<path d="M278 157.5C278 166.06 270.613 173 261.5 173C252.387 173 245 166.06 245 157.5C245 148.94 252.387 142 261.5 142C270.613 142 278 148.94 278 157.5Z" fill="#FF383C"/>
</svg>
